<svg width="24" height="24" viewBox="0 0 24 24" fill="none" xmlns="http://www.w3.org/2000/svg">
<g id="Frame">
<path id="Vector" d="M2.25 12.321L9.52 18.812C9.663 18.939 9.841 19.002 10.019 19.002C10.225 19.002 10.429 18.918 10.578 18.753L21.808 6.25195C21.937 6.10895 22 5.93095 22 5.75195C22 5.33295 21.662 5.00195 21.251 5.00195C21.045 5.00195 20.84 5.08595 20.692 5.25095L9.961 17.196L3.25 11.202C3.106 11.075 2.928 11.012 2.75 11.012C2.333 11.012 2 11.348 2 11.761C2 11.967 2.084 12.173 2.25 12.321Z" fill="white"/>
</g>
</svg>
